<svg id="visual" viewBox="0 0 900 600" width="900" height="600" xmlns="http://www.w3.org/2000/svg" xmlns:xlink="http://www.w3.org/1999/xlink" version="1.1"><rect x="0" y="0" width="900" height="600" fill="#140021"></rect><path d="M0 371L113 371L113 370L225 370L225 387L338 387L338 360L450 360L450 297L563 297L563 339L675 339L675 319L788 319L788 363L900 363L900 368L900 601L900 601L788 601L788 601L675 601L675 601L563 601L563 601L450 601L450 601L338 601L338 601L225 601L225 601L113 601L113 601L0 601Z" fill="#9900ff"></path><path d="M0 433L113 433L113 447L225 447L225 362L338 362L338 408L450 408L450 386L563 386L563 449L675 449L675 381L788 381L788 400L900 400L900 411L900 601L900 601L788 601L788 601L675 601L675 601L563 601L563 601L450 601L450 601L338 601L338 601L225 601L225 601L113 601L113 601L0 601Z" fill="#8200d9"></path><path d="M0 493L113 493L113 480L225 480L225 461L338 461L338 439L450 439L450 474L563 474L563 444L675 444L675 464L788 464L788 490L900 490L900 498L900 601L900 601L788 601L788 601L675 601L675 601L563 601L563 601L450 601L450 601L338 601L338 601L225 601L225 601L113 601L113 601L0 601Z" fill="#6c00b4"></path><path d="M0 499L113 499L113 509L225 509L225 493L338 493L338 497L450 497L450 538L563 538L563 560L675 560L675 543L788 543L788 497L900 497L900 546L900 601L900 601L788 601L788 601L675 601L675 601L563 601L563 601L450 601L450 601L338 601L338 601L225 601L225 601L113 601L113 601L0 601Z" fill="#560090"></path></svg>